<mxfile host="app.diagrams.net" modified="2022-11-23T12:08:19.287Z" agent="5.0 (Windows NT 10.0; Win64; x64) AppleWebKit/537.36 (KHTML, like Gecko) Chrome/107.0.0.0 Safari/537.36" version="20.6.0" etag="oLJ7OmdktSBZshLBJxw4" type="github">
  <diagram id="fE9rkzynnc_xZFOCLDKd" name="第 1 页">
    <mxGraphModel dx="439" dy="1881" grid="1" gridSize="10" guides="1" tooltips="1" connect="1" arrows="1" fold="1" page="1" pageScale="1" pageWidth="827" pageHeight="1169" math="0" shadow="0">
      <root>
        <mxCell id="0" />
        <mxCell id="1" parent="0" />
        <mxCell id="7StrKtaZQS665ynEXLcH-1" value="产品" style="rounded=0;whiteSpace=wrap;html=1;fontSize=16;" vertex="1" parent="1">
          <mxGeometry x="260" y="400" width="120" height="60" as="geometry" />
        </mxCell>
        <mxCell id="7StrKtaZQS665ynEXLcH-2" value="n" style="edgeStyle=none;rounded=0;orthogonalLoop=1;jettySize=auto;html=1;exitX=0.5;exitY=1;exitDx=0;exitDy=0;entryX=0.5;entryY=0;entryDx=0;entryDy=0;fontSize=16;endArrow=none;endFill=0;" edge="1" parent="1" source="7StrKtaZQS665ynEXLcH-3" target="7StrKtaZQS665ynEXLcH-5">
          <mxGeometry relative="1" as="geometry" />
        </mxCell>
        <mxCell id="7StrKtaZQS665ynEXLcH-3" value="零件" style="rounded=0;whiteSpace=wrap;html=1;fontSize=16;" vertex="1" parent="1">
          <mxGeometry x="260" y="180" width="120" height="60" as="geometry" />
        </mxCell>
        <mxCell id="7StrKtaZQS665ynEXLcH-4" value="m" style="edgeStyle=none;rounded=0;orthogonalLoop=1;jettySize=auto;html=1;exitX=0.5;exitY=1;exitDx=0;exitDy=0;entryX=0.5;entryY=0;entryDx=0;entryDy=0;fontSize=16;endArrow=none;endFill=0;" edge="1" parent="1" source="7StrKtaZQS665ynEXLcH-5" target="7StrKtaZQS665ynEXLcH-1">
          <mxGeometry relative="1" as="geometry" />
        </mxCell>
        <mxCell id="7StrKtaZQS665ynEXLcH-5" value="组成" style="rhombus;whiteSpace=wrap;html=1;fontSize=16;" vertex="1" parent="1">
          <mxGeometry x="280" y="280" width="80" height="80" as="geometry" />
        </mxCell>
        <mxCell id="7StrKtaZQS665ynEXLcH-6" value="n" style="edgeStyle=none;rounded=0;orthogonalLoop=1;jettySize=auto;html=1;exitX=0.5;exitY=1;exitDx=0;exitDy=0;entryX=0.5;entryY=0;entryDx=0;entryDy=0;fontSize=16;endArrow=none;endFill=0;" edge="1" parent="1" source="7StrKtaZQS665ynEXLcH-7" target="7StrKtaZQS665ynEXLcH-9">
          <mxGeometry relative="1" as="geometry" />
        </mxCell>
        <mxCell id="7StrKtaZQS665ynEXLcH-7" value="材料" style="rounded=0;whiteSpace=wrap;html=1;fontSize=16;" vertex="1" parent="1">
          <mxGeometry x="260" y="-40" width="120" height="60" as="geometry" />
        </mxCell>
        <mxCell id="7StrKtaZQS665ynEXLcH-8" value="m" style="edgeStyle=none;rounded=0;orthogonalLoop=1;jettySize=auto;html=1;exitX=0.5;exitY=1;exitDx=0;exitDy=0;entryX=0.5;entryY=0;entryDx=0;entryDy=0;fontSize=16;endArrow=none;endFill=0;" edge="1" parent="1" source="7StrKtaZQS665ynEXLcH-9" target="7StrKtaZQS665ynEXLcH-3">
          <mxGeometry relative="1" as="geometry" />
        </mxCell>
        <mxCell id="7StrKtaZQS665ynEXLcH-9" value="制作" style="rhombus;whiteSpace=wrap;html=1;fontSize=16;" vertex="1" parent="1">
          <mxGeometry x="280" y="60" width="80" height="80" as="geometry" />
        </mxCell>
        <mxCell id="7StrKtaZQS665ynEXLcH-10" value="1" style="edgeStyle=none;rounded=0;orthogonalLoop=1;jettySize=auto;html=1;exitX=0.5;exitY=1;exitDx=0;exitDy=0;entryX=0.5;entryY=0;entryDx=0;entryDy=0;fontSize=16;endArrow=none;endFill=0;" edge="1" parent="1" source="7StrKtaZQS665ynEXLcH-11" target="7StrKtaZQS665ynEXLcH-13">
          <mxGeometry relative="1" as="geometry" />
        </mxCell>
        <mxCell id="7StrKtaZQS665ynEXLcH-11" value="仓库" style="rounded=0;whiteSpace=wrap;html=1;fontSize=16;" vertex="1" parent="1">
          <mxGeometry x="450" y="70" width="120" height="60" as="geometry" />
        </mxCell>
        <mxCell id="7StrKtaZQS665ynEXLcH-12" value="n" style="edgeStyle=none;rounded=0;orthogonalLoop=1;jettySize=auto;html=1;exitX=0;exitY=0.5;exitDx=0;exitDy=0;entryX=1;entryY=0.5;entryDx=0;entryDy=0;fontSize=16;endArrow=none;endFill=0;" edge="1" parent="1" source="7StrKtaZQS665ynEXLcH-13" target="7StrKtaZQS665ynEXLcH-3">
          <mxGeometry relative="1" as="geometry" />
        </mxCell>
        <mxCell id="7StrKtaZQS665ynEXLcH-67" style="edgeStyle=none;rounded=0;orthogonalLoop=1;jettySize=auto;html=1;exitX=1;exitY=0.5;exitDx=0;exitDy=0;entryX=0;entryY=0.5;entryDx=0;entryDy=0;endArrow=none;endFill=0;" edge="1" parent="1" source="7StrKtaZQS665ynEXLcH-13" target="7StrKtaZQS665ynEXLcH-66">
          <mxGeometry relative="1" as="geometry" />
        </mxCell>
        <mxCell id="7StrKtaZQS665ynEXLcH-13" value="储存" style="rhombus;whiteSpace=wrap;html=1;fontSize=16;" vertex="1" parent="1">
          <mxGeometry x="470" y="170" width="80" height="80" as="geometry" />
        </mxCell>
        <mxCell id="7StrKtaZQS665ynEXLcH-14" value="n" style="edgeStyle=none;rounded=0;orthogonalLoop=1;jettySize=auto;html=1;exitX=0;exitY=0.5;exitDx=0;exitDy=0;entryX=1;entryY=0.5;entryDx=0;entryDy=0;fontSize=16;endArrow=none;endFill=0;" edge="1" parent="1" source="7StrKtaZQS665ynEXLcH-16" target="7StrKtaZQS665ynEXLcH-7">
          <mxGeometry relative="1" as="geometry" />
        </mxCell>
        <mxCell id="7StrKtaZQS665ynEXLcH-15" value="1" style="edgeStyle=none;rounded=0;orthogonalLoop=1;jettySize=auto;html=1;exitX=0.5;exitY=1;exitDx=0;exitDy=0;entryX=0.5;entryY=0;entryDx=0;entryDy=0;fontSize=16;endArrow=none;endFill=0;" edge="1" parent="1" source="7StrKtaZQS665ynEXLcH-16" target="7StrKtaZQS665ynEXLcH-11">
          <mxGeometry relative="1" as="geometry" />
        </mxCell>
        <mxCell id="7StrKtaZQS665ynEXLcH-69" style="edgeStyle=none;rounded=0;orthogonalLoop=1;jettySize=auto;html=1;exitX=1;exitY=0.5;exitDx=0;exitDy=0;entryX=0;entryY=0.5;entryDx=0;entryDy=0;endArrow=none;endFill=0;" edge="1" parent="1" source="7StrKtaZQS665ynEXLcH-16" target="7StrKtaZQS665ynEXLcH-68">
          <mxGeometry relative="1" as="geometry" />
        </mxCell>
        <mxCell id="7StrKtaZQS665ynEXLcH-16" value="储存" style="rhombus;whiteSpace=wrap;html=1;fontSize=16;" vertex="1" parent="1">
          <mxGeometry x="470" y="-50" width="80" height="80" as="geometry" />
        </mxCell>
        <mxCell id="7StrKtaZQS665ynEXLcH-21" style="rounded=0;orthogonalLoop=1;jettySize=auto;html=1;exitX=1;exitY=0.5;exitDx=0;exitDy=0;entryX=0;entryY=0.5;entryDx=0;entryDy=0;endArrow=none;endFill=0;" edge="1" parent="1" source="7StrKtaZQS665ynEXLcH-19" target="7StrKtaZQS665ynEXLcH-1">
          <mxGeometry relative="1" as="geometry" />
        </mxCell>
        <mxCell id="7StrKtaZQS665ynEXLcH-19" value="产品名" style="rounded=1;whiteSpace=wrap;html=1;" vertex="1" parent="1">
          <mxGeometry x="130" y="385" width="80" height="40" as="geometry" />
        </mxCell>
        <mxCell id="7StrKtaZQS665ynEXLcH-24" style="edgeStyle=none;rounded=0;orthogonalLoop=1;jettySize=auto;html=1;exitX=1;exitY=0.5;exitDx=0;exitDy=0;entryX=0;entryY=0.5;entryDx=0;entryDy=0;endArrow=none;endFill=0;" edge="1" parent="1" source="7StrKtaZQS665ynEXLcH-20" target="7StrKtaZQS665ynEXLcH-1">
          <mxGeometry relative="1" as="geometry" />
        </mxCell>
        <mxCell id="7StrKtaZQS665ynEXLcH-20" value="产品号" style="rounded=1;whiteSpace=wrap;html=1;" vertex="1" parent="1">
          <mxGeometry x="130" y="435" width="80" height="40" as="geometry" />
        </mxCell>
        <mxCell id="7StrKtaZQS665ynEXLcH-35" style="edgeStyle=none;rounded=0;orthogonalLoop=1;jettySize=auto;html=1;exitX=1;exitY=0.5;exitDx=0;exitDy=0;entryX=0;entryY=0.5;entryDx=0;entryDy=0;endArrow=none;endFill=0;" edge="1" parent="1" source="7StrKtaZQS665ynEXLcH-25" target="7StrKtaZQS665ynEXLcH-3">
          <mxGeometry relative="1" as="geometry" />
        </mxCell>
        <mxCell id="7StrKtaZQS665ynEXLcH-25" value="零件名" style="rounded=1;whiteSpace=wrap;html=1;" vertex="1" parent="1">
          <mxGeometry x="130" y="165" width="80" height="40" as="geometry" />
        </mxCell>
        <mxCell id="7StrKtaZQS665ynEXLcH-38" style="edgeStyle=none;rounded=0;orthogonalLoop=1;jettySize=auto;html=1;exitX=1;exitY=0.5;exitDx=0;exitDy=0;entryX=0;entryY=0.5;entryDx=0;entryDy=0;endArrow=none;endFill=0;" edge="1" parent="1" source="7StrKtaZQS665ynEXLcH-26" target="7StrKtaZQS665ynEXLcH-3">
          <mxGeometry relative="1" as="geometry" />
        </mxCell>
        <mxCell id="7StrKtaZQS665ynEXLcH-26" value="零件号" style="rounded=1;whiteSpace=wrap;html=1;" vertex="1" parent="1">
          <mxGeometry x="130" y="215" width="80" height="40" as="geometry" />
        </mxCell>
        <mxCell id="7StrKtaZQS665ynEXLcH-31" style="edgeStyle=none;rounded=0;orthogonalLoop=1;jettySize=auto;html=1;exitX=1;exitY=0.5;exitDx=0;exitDy=0;entryX=0;entryY=0.5;entryDx=0;entryDy=0;endArrow=none;endFill=0;" edge="1" parent="1" source="7StrKtaZQS665ynEXLcH-29" target="7StrKtaZQS665ynEXLcH-7">
          <mxGeometry relative="1" as="geometry" />
        </mxCell>
        <mxCell id="7StrKtaZQS665ynEXLcH-29" value="材料名" style="rounded=1;whiteSpace=wrap;html=1;" vertex="1" parent="1">
          <mxGeometry x="130" y="-80" width="80" height="40" as="geometry" />
        </mxCell>
        <mxCell id="7StrKtaZQS665ynEXLcH-34" style="edgeStyle=none;rounded=0;orthogonalLoop=1;jettySize=auto;html=1;exitX=1;exitY=0.5;exitDx=0;exitDy=0;entryX=0;entryY=0.5;entryDx=0;entryDy=0;endArrow=none;endFill=0;" edge="1" parent="1" source="7StrKtaZQS665ynEXLcH-30" target="7StrKtaZQS665ynEXLcH-7">
          <mxGeometry relative="1" as="geometry" />
        </mxCell>
        <mxCell id="7StrKtaZQS665ynEXLcH-30" value="材料号" style="rounded=1;whiteSpace=wrap;html=1;" vertex="1" parent="1">
          <mxGeometry x="130" y="-30" width="80" height="40" as="geometry" />
        </mxCell>
        <mxCell id="7StrKtaZQS665ynEXLcH-47" style="edgeStyle=none;rounded=0;orthogonalLoop=1;jettySize=auto;html=1;exitX=0;exitY=0.5;exitDx=0;exitDy=0;entryX=1;entryY=0.5;entryDx=0;entryDy=0;endArrow=none;endFill=0;" edge="1" parent="1" source="7StrKtaZQS665ynEXLcH-45" target="7StrKtaZQS665ynEXLcH-11">
          <mxGeometry relative="1" as="geometry" />
        </mxCell>
        <mxCell id="7StrKtaZQS665ynEXLcH-45" value="仓库名" style="rounded=1;whiteSpace=wrap;html=1;" vertex="1" parent="1">
          <mxGeometry x="630" y="55" width="80" height="40" as="geometry" />
        </mxCell>
        <mxCell id="7StrKtaZQS665ynEXLcH-50" style="edgeStyle=none;rounded=0;orthogonalLoop=1;jettySize=auto;html=1;exitX=0;exitY=0.5;exitDx=0;exitDy=0;entryX=1;entryY=0.5;entryDx=0;entryDy=0;endArrow=none;endFill=0;" edge="1" parent="1" source="7StrKtaZQS665ynEXLcH-46" target="7StrKtaZQS665ynEXLcH-11">
          <mxGeometry relative="1" as="geometry" />
        </mxCell>
        <mxCell id="7StrKtaZQS665ynEXLcH-46" value="仓库号" style="rounded=1;whiteSpace=wrap;html=1;" vertex="1" parent="1">
          <mxGeometry x="630" y="105" width="80" height="40" as="geometry" />
        </mxCell>
        <mxCell id="7StrKtaZQS665ynEXLcH-54" style="edgeStyle=none;rounded=0;orthogonalLoop=1;jettySize=auto;html=1;exitX=1;exitY=0.5;exitDx=0;exitDy=0;entryX=0;entryY=0.5;entryDx=0;entryDy=0;endArrow=none;endFill=0;" edge="1" parent="1" source="7StrKtaZQS665ynEXLcH-51" target="7StrKtaZQS665ynEXLcH-7">
          <mxGeometry relative="1" as="geometry" />
        </mxCell>
        <mxCell id="7StrKtaZQS665ynEXLcH-51" value="类别" style="rounded=1;whiteSpace=wrap;html=1;" vertex="1" parent="1">
          <mxGeometry x="130" y="20" width="80" height="40" as="geometry" />
        </mxCell>
        <mxCell id="7StrKtaZQS665ynEXLcH-63" style="edgeStyle=none;rounded=0;orthogonalLoop=1;jettySize=auto;html=1;exitX=1;exitY=0.5;exitDx=0;exitDy=0;entryX=0;entryY=0.5;entryDx=0;entryDy=0;endArrow=none;endFill=0;" edge="1" parent="1" source="7StrKtaZQS665ynEXLcH-62" target="7StrKtaZQS665ynEXLcH-5">
          <mxGeometry relative="1" as="geometry" />
        </mxCell>
        <mxCell id="7StrKtaZQS665ynEXLcH-62" value="使用零件量" style="rounded=1;whiteSpace=wrap;html=1;" vertex="1" parent="1">
          <mxGeometry x="130" y="300" width="80" height="40" as="geometry" />
        </mxCell>
        <mxCell id="7StrKtaZQS665ynEXLcH-65" style="edgeStyle=none;rounded=0;orthogonalLoop=1;jettySize=auto;html=1;exitX=1;exitY=0.5;exitDx=0;exitDy=0;entryX=0;entryY=0.5;entryDx=0;entryDy=0;endArrow=none;endFill=0;" edge="1" parent="1" source="7StrKtaZQS665ynEXLcH-64" target="7StrKtaZQS665ynEXLcH-9">
          <mxGeometry relative="1" as="geometry" />
        </mxCell>
        <mxCell id="7StrKtaZQS665ynEXLcH-64" value="使用材料量" style="rounded=1;whiteSpace=wrap;html=1;" vertex="1" parent="1">
          <mxGeometry x="130" y="80" width="80" height="40" as="geometry" />
        </mxCell>
        <mxCell id="7StrKtaZQS665ynEXLcH-66" value="存储量" style="rounded=1;whiteSpace=wrap;html=1;" vertex="1" parent="1">
          <mxGeometry x="630" y="190" width="80" height="40" as="geometry" />
        </mxCell>
        <mxCell id="7StrKtaZQS665ynEXLcH-68" value="存储量" style="rounded=1;whiteSpace=wrap;html=1;" vertex="1" parent="1">
          <mxGeometry x="630" y="-30" width="80" height="40" as="geometry" />
        </mxCell>
      </root>
    </mxGraphModel>
  </diagram>
</mxfile>
